<!-- icon666.com - MILLIONS vector ICONS FREE --><svg viewBox="0 0 512 512.06899" xmlns="http://www.w3.org/2000/svg"><path d="m486.648438 297.378906-2.734376-2.753906c-12.523437-12.441406-32.742187-12.441406-45.265624 0l-34.734376 34.753906c-15.105468 13.539063-34.375 21.519532-54.632812 22.621094h-29.296875c17.675781 0 32-14.324219 32-32 0-17.671875-14.324219-32-32-32h-160c-19.476563 1.085938-37.265625 11.410156-47.871094 27.785156l-92.429687 152.433594c-8.730469 15.285156-1.472656 27.78125 16.125 27.78125h124.175781l32-48h160c48 0 134.664063-105.375 134.664063-105.375 12.449218-12.515625 12.449218-32.734375 0-45.246094zm0 0" fill="#3b4ee4" style="fill: rgb(229, 192, 56);"></path><path d="m159.984375 176 96 48v-112l-96-48zm0 0" fill="#3b4ee4" style="fill: rgb(229, 192, 56);"></path><path d="m351.984375 176-96 48v-112l96-48zm0 0" fill="#23a6ff" style="fill: rgb(251, 255, 36);"></path><path d="m351.984375 64-96-48-96 48 96 48zm0 0" fill="#fff"></path><g fill="#042e6b"><path d="m495.1875 283.3125c-18.769531-18.683594-49.113281-18.683594-67.882812 0l-34.734376 34.746094c-7.636718 6.761718-16.640624 11.800781-26.398437 14.773437 4.003906-14.4375 1.035156-29.921875-8.023437-41.855469-9.0625-11.933593-23.175782-18.953124-38.164063-18.976562h-160c-25.054687 1.148438-47.996094 14.375-61.550781 35.480469l-92.640625 152.800781c-6.992188 10.667969-7.664063 24.285156-1.757813 35.59375 6.878906 10.742188 19.039063 16.917969 31.773438 16.125h124.175781c5.351563 0 10.347656-2.675781 13.3125-7.125l27.25-40.875h151.4375c52.378906 0 130.257813-90.886719 146.578125-110.664062 18.121094-18.847657 17.863281-48.722657-.585938-67.253907zm-19.875 48c-.371094.363281-.71875.75-1.046875 1.152344-33.960937 41.328125-94.382813 99.535156-122.28125 99.535156h-160c-5.347656.003906-10.34375 2.675781-13.308594 7.128906l-27.25 40.871094h-115.617187c-1.246094.027344-2.488282-.117188-3.695313-.429688.269531-1.074218.691407-2.101562 1.257813-3.050781l92.632812-152.796875c7.742188-11.394531 20.246094-18.648437 33.980469-19.722656h160c8.839844 0 16 7.164062 16 16 0 8.839844-7.160156 16-16 16h-80c-8.835937 0-16 7.164062-16 16 0 8.839844 7.164063 16 16 16h109.296875c24.515625-1.03125 47.878906-10.707031 65.945312-27.308594l34.734376-34.746094c6.359374-5.96875 16.265624-5.96875 22.625 0l2.761718 2.769532c6.183594 6.273437 6.183594 16.347656 0 22.621094zm0 0" fill="#042e6b" style="fill: rgb(94, 94, 94);"></path><path d="m365.730469 55.898438c-.28125-.472657-.648438-.882813-.976563-1.335938-.480468-.691406-1.015625-1.339844-1.601562-1.945312-.445313-.414063-.917969-.796876-1.414063-1.152344-.421875-.378906-.867187-.738282-1.328125-1.070313-.214844-.136719-.464844-.191406-.679687-.3125-.214844-.121093-.359375-.289062-.578125-.390625l-96-48c-4.503906-2.253906-9.804688-2.253906-14.308594 0l-96 48c-.210938.101563-.363281.277344-.570312.390625-.207032.113281-.464844.175781-.679688.3125-.460938.332031-.90625.691407-1.328125 1.070313-.496094.355468-.972656.742187-1.421875 1.152344-.585938.605468-1.117188 1.257812-1.601562 1.945312-.328126.453125-.695313.863281-.976563 1.335938-.453125.820312-.835937 1.683593-1.136719 2.574218-.195312.421875-.367187.851563-.519531 1.289063-.402344 1.378906-.609375 2.804687-.625 4.238281v112c0 6.0625 3.421875 11.601562 8.84375 14.3125l96 48c.621094.273438 1.265625.507812 1.917969.695312.40625.144532.800781.328126 1.214844.441407 2.632812.734375 5.417968.734375 8.050781 0 .414062-.113281.796875-.296875 1.214843-.441407.652344-.1875 1.289063-.417968 1.910157-.695312l96-48c5.421875-2.707031 8.847656-8.25 8.847656-14.3125v-112c-.003906-1.433594-.203125-2.859375-.597656-4.238281-.148438-.4375-.324219-.867188-.519531-1.289063-.300782-.890625-.683594-1.753906-1.136719-2.574218zm-125.746094 142.214843-64-32v-76.222656l64 32zm16-104-60.214844-30.113281 60.214844-30.109375 60.21875 30.109375zm80 72-64 32v-76.222656l64-32zm0 0" fill="#042e6b" style="fill: rgb(94, 94, 94);"></path></g></svg>